# xmcd
#
# Track frame offsets:
#	150
#	21925
#	35305
#	51855
#	68977
#	86385
#	97867
#	115007
#	132192
#	144170
#	159652
#	174572
#	192170
#	209635
#	228592
#	247685
#
# Disc length: 3505 seconds
#
# Revision: 13
# Processed by: cddbd v1.5.2PL0 Copyright (c) Steve Scherf et al.
# Submitted via: EZCDAudioConverter 4.0.2.1
#
DISCID=ce0daf10
DTITLE=Various Artist - Kilometer 330 - Die schönsten Country- und Trucker Songs - Fo
DTITLE=lge 3
DYEAR=1991
DGENRE=Country
TTITLE0=Jonny Hill - Ruf Teddybär eins-vier
TTITLE1=Truck Stop - Arizona Arizona
TTITLE2=Linda Feller - Warum kann ich nicht vergessen
TTITLE3=Frank Baum and Country Green - Das Lied der Straße singen 18 Räder
TTITLE4=Boss Band - Portland daheim
TTITLE5=Jonny Hill - Lichter auf den Hügeln
TTITLE6=Nashville Music Company - Country In Good Old Germany
TTITLE7=Tennessee - Traumfrau
TTITLE8=Tom Astor - Hallo, guten Morgen Deutschland
TTITLE9=Max Zwo - Lady Country Music
TTITLE10=Jonny Hill - Das fremde Gesicht
TTITLE11=Linda Feller - Es fällt mir schwer dir zu glauben
TTITLE12=Jonny Hill - Sie waren sich zu spät begegnet
TTITLE13=Gunter Gabriel - Intercity Linie Nr. 4
TTITLE14=Frank Baum and Country Green - Wie ein Stern in der Nacht
TTITLE15=Greyhounds - Mein Diesel
EXTD=
EXTT0=
EXTT1=
EXTT2=
EXTT3=
EXTT4=
EXTT5=
EXTT6=
EXTT7=
EXTT8=
EXTT9=
EXTT10=
EXTT11=
EXTT12=
EXTT13=
EXTT14=
EXTT15=
PLAYORDER=
